<svg width="18" height="19" viewBox="0 0 18 19" fill="none" xmlns="http://www.w3.org/2000/svg">
<path d="M3 15.5H18V17H3V15.5ZM4.5 9.5H6V14.75H4.5V9.5ZM8.25 9.5H9.75V14.75H8.25V9.5ZM11.25 9.5H12.75V14.75H11.25V9.5ZM15 9.5H16.5V14.75H15V9.5ZM3 5.75L10.5 2L18 5.75V8.75H3V5.75ZM10.5 6.5C10.6989 6.5 10.8897 6.42098 11.0303 6.28033C11.171 6.13968 11.25 5.94891 11.25 5.75C11.25 5.55109 11.171 5.36032 11.0303 5.21967C10.8897 5.07902 10.6989 5 10.5 5C10.3011 5 10.1103 5.07902 9.96967 5.21967C9.82902 5.36032 9.75 5.55109 9.75 5.75C9.75 5.94891 9.82902 6.13968 9.96967 6.28033C10.1103 6.42098 10.3011 6.5 10.5 6.5Z" fill="#5B5757"/>
</svg>
