<svg width="14" height="14" viewBox="0 0 14 14" fill="none" xmlns="http://www.w3.org/2000/svg">
<path d="M12.6 1.86719C12.9713 1.86719 13.3274 2.01469 13.5899 2.27724C13.8525 2.53979 14 2.89588 14 3.26719V4.66719H0V3.26719C0 2.89588 0.1475 2.53979 0.410051 2.27724C0.672601 2.01469 1.0287 1.86719 1.4 1.86719H12.6Z" fill="#5B5757"/>
<path fill-rule="evenodd" clip-rule="evenodd" d="M0 5.60156V10.7349C0 11.1062 0.1475 11.4623 0.410051 11.7248C0.672601 11.9874 1.0287 12.1349 1.4 12.1349H12.6C12.9713 12.1349 13.3274 11.9874 13.5899 11.7248C13.8525 11.4623 14 11.1062 14 10.7349V5.60156H0ZM1.86667 9.3349H7.46667V8.40156H1.86667V9.3349ZM12.1333 9.3349H9.33333V8.40156H12.1333V9.3349Z" fill="#58AF6B"/>
</svg>
