<svg xmlns="http://www.w3.org/2000/svg" xmlns:xlink="http://www.w3.org/1999/xlink" width="500" zoomAndPan="magnify" viewBox="0 0 375 374.999991" height="500" preserveAspectRatio="xMidYMid meet" version="1.2"><defs/><g id="1bee32ee86"><g style="fill:#43a046;fill-opacity:1;"><g transform="translate(49.036367, 185.999988)"><path style="stroke:none" d="M 5.378906 15.683594 L 7.332031 15.683594 L 7.332031 17.214844 L 5.796875 17.214844 L 5.796875 -8.742188 L 8.714844 -9.40625 C 10.066406 -6.578125 11.953125 -4.386719 14.371094 -2.839844 C 16.777344 -1.296875 19.496094 -0.527344 22.53125 -0.527344 C 24.632812 -0.527344 26.648438 -0.933594 28.570312 -1.75 C 30.429688 -2.539062 32.074219 -3.652344 33.503906 -5.09375 C 34.9375 -6.53125 36.042969 -8.1875 36.824219 -10.050781 C 37.628906 -11.984375 38.023438 -14.011719 38.011719 -16.128906 C 38.011719 -18.242188 37.605469 -20.242188 36.796875 -22.136719 C 36.015625 -23.964844 34.90625 -25.582031 33.472656 -26.980469 C 32.035156 -28.382812 30.375 -29.464844 28.496094 -30.230469 C 26.546875 -31.023438 24.492188 -31.417969 22.328125 -31.417969 C 19.046875 -31.417969 16.113281 -30.523438 13.527344 -28.726562 C 10.933594 -26.925781 9.058594 -24.480469 7.890625 -21.382812 C 7.554688 -20.464844 7.308594 -19.523438 7.15625 -18.554688 C 6.996094 -17.542969 6.914062 -16.378906 6.914062 -15.066406 L 6.914062 17.214844 L 5.378906 17.214844 Z M 3.847656 18.75 L 3.847656 -15.066406 C 3.847656 -16.542969 3.9375 -17.867188 4.125 -19.039062 C 4.308594 -20.199219 4.609375 -21.34375 5.019531 -22.464844 C 6.410156 -26.15625 8.660156 -29.082031 11.777344 -31.246094 C 14.890625 -33.40625 18.40625 -34.488281 22.328125 -34.488281 C 24.894531 -34.488281 27.335938 -34.015625 29.652344 -33.070312 C 31.90625 -32.15625 33.890625 -30.855469 35.613281 -29.175781 C 37.339844 -27.492188 38.675781 -25.546875 39.617188 -23.34375 C 40.589844 -21.066406 41.078125 -18.667969 41.078125 -16.152344 C 41.097656 -13.617188 40.621094 -11.1875 39.652344 -8.871094 C 38.722656 -6.632812 37.398438 -4.652344 35.679688 -2.929688 C 33.96875 -1.207031 31.996094 0.128906 29.769531 1.074219 C 27.464844 2.054688 25.050781 2.542969 22.53125 2.542969 C 18.898438 2.542969 15.625 1.609375 12.714844 -0.253906 C 9.804688 -2.117188 7.550781 -4.726562 5.945312 -8.082031 L 7.332031 -8.742188 L 8.863281 -8.742188 L 8.863281 18.75 Z M 22.597656 0.726562 C 20.339844 0.726562 18.175781 0.285156 16.101562 -0.597656 C 14.101562 -1.453125 12.328125 -2.652344 10.785156 -4.203125 C 9.238281 -5.757812 8.039062 -7.535156 7.1875 -9.542969 C 6.304688 -11.625 5.863281 -13.800781 5.863281 -16.074219 C 5.863281 -18.34375 6.292969 -20.511719 7.152344 -22.574219 C 7.984375 -24.570312 9.160156 -26.335938 10.679688 -27.871094 C 12.199219 -29.40625 13.953125 -30.59375 15.933594 -31.433594 C 17.984375 -32.304688 20.136719 -32.738281 22.394531 -32.738281 C 24.6875 -32.738281 26.863281 -32.304688 28.929688 -31.433594 C 30.933594 -30.589844 32.699219 -29.394531 34.230469 -27.84375 C 35.757812 -26.296875 36.941406 -24.507812 37.773438 -22.480469 C 38.632812 -20.394531 39.0625 -18.191406 39.0625 -15.871094 C 39.0625 -13.632812 38.632812 -11.488281 37.773438 -9.4375 C 36.941406 -7.449219 35.769531 -5.691406 34.253906 -4.160156 C 32.738281 -2.621094 30.992188 -1.429688 29.023438 -0.585938 C 26.980469 0.289062 24.835938 0.726562 22.597656 0.726562 Z M 22.597656 -2.339844 C 24.417969 -2.339844 26.15625 -2.695312 27.816406 -3.40625 C 29.417969 -4.09375 30.835938 -5.0625 32.074219 -6.316406 C 33.308594 -7.566406 34.265625 -9 34.941406 -10.621094 C 35.640625 -12.292969 35.992188 -14.042969 35.992188 -15.871094 C 35.992188 -17.785156 35.640625 -19.601562 34.933594 -21.316406 C 34.253906 -22.96875 33.292969 -24.425781 32.046875 -25.6875 C 30.804688 -26.945312 29.367188 -27.917969 27.738281 -28.605469 C 26.054688 -29.316406 24.273438 -29.671875 22.394531 -29.671875 C 20.554688 -29.671875 18.800781 -29.316406 17.132812 -28.609375 C 15.519531 -27.925781 14.097656 -26.960938 12.859375 -25.710938 C 11.621094 -24.460938 10.664062 -23.023438 9.984375 -21.394531 C 9.28125 -19.707031 8.933594 -17.933594 8.933594 -16.074219 C 8.933594 -14.21875 9.292969 -12.441406 10.011719 -10.738281 C 10.707031 -9.097656 11.691406 -7.640625 12.957031 -6.371094 C 14.222656 -5.101562 15.671875 -4.117188 17.304688 -3.421875 C 18.996094 -2.703125 20.757812 -2.339844 22.597656 -2.339844 Z M 22.597656 -2.339844 "/></g></g><g style="fill:#43a046;fill-opacity:1;"><g transform="translate(101.151133, 185.999988)"><path style="stroke:none" d="M 5.378906 -1.535156 L 7.332031 -1.535156 L 7.332031 0 L 5.796875 0 L 5.796875 -15.265625 C 5.816406 -16.984375 5.867188 -18.390625 5.949219 -19.480469 C 6.058594 -20.867188 6.234375 -22.078125 6.484375 -23.117188 C 7.0625 -25.511719 8.179688 -27.503906 9.835938 -29.085938 C 11.152344 -30.328125 12.675781 -31.277344 14.402344 -31.933594 C 16.167969 -32.605469 18.070312 -32.941406 20.109375 -32.941406 L 20.648438 -32.941406 L 20.648438 -31.40625 L 19.113281 -31.40625 L 19.113281 -33.15625 L 20.648438 -33.15625 L 20.457031 -31.632812 C 20.160156 -31.671875 19.84375 -31.6875 19.503906 -31.6875 C 17.761719 -31.6875 16.070312 -31.359375 14.433594 -30.707031 C 12.878906 -30.085938 11.59375 -29.261719 10.566406 -28.238281 C 9.703125 -27.371094 9.015625 -26.480469 8.507812 -25.570312 C 8.035156 -24.714844 7.679688 -23.765625 7.4375 -22.714844 C 7.21875 -21.75 7.070312 -20.582031 6.996094 -19.203125 C 6.941406 -18.214844 6.914062 -16.722656 6.914062 -14.726562 L 6.914062 0 L 5.378906 0 Z M 3.847656 1.535156 L 3.847656 -14.726562 C 3.847656 -16.777344 3.875 -18.324219 3.929688 -19.371094 C 4.015625 -20.921875 4.1875 -22.265625 4.449219 -23.402344 C 4.753906 -24.730469 5.210938 -25.949219 5.824219 -27.058594 C 6.472656 -28.222656 7.328125 -29.339844 8.398438 -30.40625 C 9.71875 -31.730469 11.351562 -32.777344 13.292969 -33.554688 C 15.296875 -34.355469 17.367188 -34.757812 19.503906 -34.757812 C 19.96875 -34.757812 20.414062 -34.730469 20.835938 -34.679688 L 22.179688 -34.511719 L 22.179688 -29.871094 L 20.109375 -29.871094 C 18.445312 -29.871094 16.90625 -29.601562 15.492188 -29.066406 C 14.144531 -28.554688 12.96875 -27.820312 11.957031 -26.867188 C 10.734375 -25.699219 9.90625 -24.210938 9.46875 -22.398438 C 9.101562 -20.875 8.902344 -18.496094 8.863281 -15.265625 L 8.863281 1.535156 Z M 3.847656 1.535156 "/></g></g><g style="fill:#43a046;fill-opacity:1;"><g transform="translate(132.958737, 185.999988)"><path style="stroke:none" d="M 19.703125 -31.6875 C 17.5625 -31.6875 15.527344 -31.285156 13.597656 -30.480469 C 11.734375 -29.703125 10.089844 -28.605469 8.667969 -27.183594 C 7.242188 -25.765625 6.140625 -24.128906 5.363281 -22.273438 C 4.558594 -20.355469 4.15625 -18.332031 4.15625 -16.207031 C 4.15625 -14.082031 4.554688 -12.0625 5.355469 -10.152344 C 6.125 -8.304688 7.21875 -6.675781 8.632812 -5.265625 C 10.046875 -3.851562 11.683594 -2.761719 13.539062 -1.992188 C 15.460938 -1.195312 17.496094 -0.792969 19.636719 -0.792969 C 21.78125 -0.792969 23.820312 -1.195312 25.757812 -2 C 27.628906 -2.777344 29.28125 -3.875 30.714844 -5.292969 C 32.148438 -6.710938 33.253906 -8.34375 34.039062 -10.1875 C 34.847656 -12.09375 35.253906 -14.101562 35.253906 -16.207031 C 35.253906 -18.328125 34.847656 -20.351562 34.039062 -22.269531 C 33.257812 -24.125 32.148438 -25.761719 30.71875 -27.183594 C 29.289062 -28.605469 27.644531 -29.703125 25.785156 -30.480469 C 23.855469 -31.285156 21.832031 -31.6875 19.703125 -31.6875 Z M 19.703125 -34.757812 C 22.242188 -34.757812 24.660156 -34.277344 26.964844 -33.3125 C 29.199219 -32.382812 31.171875 -31.0625 32.882812 -29.359375 C 34.597656 -27.652344 35.925781 -25.6875 36.863281 -23.464844 C 37.835938 -21.164062 38.320312 -18.742188 38.320312 -16.207031 C 38.320312 -13.6875 37.835938 -11.28125 36.863281 -8.988281 C 35.921875 -6.773438 34.59375 -4.8125 32.871094 -3.113281 C 31.152344 -1.410156 29.175781 -0.0976562 26.933594 0.832031 C 24.621094 1.792969 22.1875 2.273438 19.636719 2.273438 C 17.085938 2.273438 14.660156 1.796875 12.363281 0.84375 C 10.132812 -0.0820312 8.167969 -1.394531 6.464844 -3.089844 C 4.765625 -4.789062 3.449219 -6.746094 2.523438 -8.96875 C 1.566406 -11.257812 1.089844 -13.671875 1.089844 -16.207031 C 1.089844 -18.746094 1.570312 -21.164062 2.535156 -23.460938 C 3.46875 -25.6875 4.789062 -27.652344 6.5 -29.359375 C 8.210938 -31.0625 10.183594 -32.382812 12.417969 -33.3125 C 14.722656 -34.277344 17.152344 -34.757812 19.703125 -34.757812 Z M 19.636719 -32.941406 C 21.941406 -32.941406 24.125 -32.511719 26.195312 -31.652344 C 28.199219 -30.816406 29.964844 -29.632812 31.492188 -28.101562 C 33.015625 -26.574219 34.195312 -24.804688 35.023438 -22.800781 C 35.878906 -20.738281 36.304688 -18.5625 36.304688 -16.273438 C 36.304688 -13.941406 35.882812 -11.734375 35.039062 -9.652344 C 34.21875 -7.625 33.046875 -5.847656 31.53125 -4.308594 C 30.015625 -2.773438 28.253906 -1.589844 26.25 -0.757812 C 24.195312 0.0976562 22.011719 0.527344 19.703125 0.527344 C 17.433594 0.527344 15.269531 0.09375 13.210938 -0.765625 C 11.21875 -1.601562 9.457031 -2.785156 7.933594 -4.3125 C 6.40625 -5.84375 5.226562 -7.609375 4.394531 -9.613281 C 3.535156 -11.679688 3.105469 -13.855469 3.105469 -16.140625 C 3.105469 -18.457031 3.53125 -20.65625 4.382812 -22.738281 C 5.207031 -24.757812 6.378906 -26.539062 7.894531 -28.078125 C 9.410156 -29.617188 11.164062 -30.808594 13.152344 -31.644531 C 15.199219 -32.507812 17.363281 -32.941406 19.636719 -32.941406 Z M 19.636719 -29.871094 C 17.777344 -29.871094 16.011719 -29.519531 14.34375 -28.816406 C 12.730469 -28.136719 11.308594 -27.175781 10.078125 -25.925781 C 8.847656 -24.671875 7.894531 -23.222656 7.222656 -21.578125 C 6.523438 -19.867188 6.175781 -18.054688 6.175781 -16.140625 C 6.175781 -14.261719 6.527344 -12.480469 7.230469 -10.789062 C 7.90625 -9.160156 8.867188 -7.726562 10.105469 -6.480469 C 11.347656 -5.238281 12.777344 -4.277344 14.398438 -3.597656 C 16.074219 -2.894531 17.84375 -2.542969 19.703125 -2.542969 C 21.601562 -2.542969 23.390625 -2.890625 25.074219 -3.589844 C 26.695312 -4.265625 28.121094 -5.222656 29.347656 -6.464844 C 30.578125 -7.710938 31.527344 -9.15625 32.195312 -10.804688 C 32.886719 -12.515625 33.234375 -14.339844 33.234375 -16.273438 C 33.234375 -18.15625 32.886719 -19.941406 32.1875 -21.628906 C 31.515625 -23.257812 30.558594 -24.695312 29.320312 -25.933594 C 28.082031 -27.179688 26.644531 -28.140625 25.015625 -28.816406 C 23.324219 -29.519531 21.53125 -29.871094 19.636719 -29.871094 Z M 19.636719 -29.871094 "/></g></g><g style="fill:#43a046;fill-opacity:1;"><g transform="translate(182.451054, 185.999988)"><path style="stroke:none" d="M 36.789062 -47.894531 L 34.835938 -47.894531 L 34.835938 -49.429688 L 36.371094 -49.429688 L 36.371094 -23.472656 L 33.453125 -22.808594 C 32.101562 -25.636719 30.214844 -27.824219 27.796875 -29.375 C 25.390625 -30.917969 22.671875 -31.6875 19.636719 -31.6875 C 17.53125 -31.6875 15.519531 -31.28125 13.597656 -30.464844 C 11.738281 -29.675781 10.09375 -28.5625 8.664062 -27.121094 C 7.230469 -25.679688 6.125 -24.027344 5.34375 -22.164062 C 4.539062 -20.230469 4.140625 -18.203125 4.15625 -16.085938 C 4.15625 -13.96875 4.558594 -11.964844 5.363281 -10.074219 C 6.140625 -8.242188 7.242188 -6.628906 8.664062 -5.230469 C 10.09375 -3.832031 11.742188 -2.75 13.617188 -1.984375 C 15.558594 -1.191406 17.609375 -0.792969 19.773438 -0.792969 C 23.058594 -0.792969 26.003906 -1.691406 28.609375 -3.492188 C 31.222656 -5.292969 33.113281 -7.742188 34.273438 -10.828125 C 34.613281 -11.75 34.859375 -12.691406 35.011719 -13.65625 C 35.171875 -14.671875 35.253906 -15.832031 35.253906 -17.148438 L 35.253906 -49.429688 L 36.789062 -49.429688 Z M 38.320312 -50.964844 L 38.320312 -17.148438 C 38.320312 -15.671875 38.226562 -14.347656 38.042969 -13.175781 C 37.855469 -12.015625 37.558594 -10.871094 37.148438 -9.75 C 35.757812 -6.058594 33.496094 -3.132812 30.351562 -0.964844 C 27.222656 1.195312 23.695312 2.273438 19.773438 2.273438 C 17.207031 2.273438 14.769531 1.800781 12.457031 0.855469 C 10.210938 -0.0585938 8.230469 -1.359375 6.515625 -3.039062 C 4.800781 -4.722656 3.472656 -6.667969 2.539062 -8.875 C 1.570312 -11.152344 1.089844 -13.546875 1.089844 -16.0625 C 1.070312 -18.597656 1.546875 -21.027344 2.511719 -23.34375 C 3.445312 -25.582031 4.769531 -27.5625 6.488281 -29.285156 C 8.199219 -31.007812 10.171875 -32.34375 12.398438 -33.289062 C 14.703125 -34.269531 17.117188 -34.757812 19.636719 -34.757812 C 23.269531 -34.757812 26.539062 -33.824219 29.453125 -31.957031 C 32.359375 -30.09375 34.617188 -27.488281 36.222656 -24.132812 L 34.835938 -23.472656 L 33.300781 -23.472656 L 33.300781 -50.964844 Z M 19.570312 -32.941406 C 21.828125 -32.941406 23.992188 -32.5 26.066406 -31.613281 C 28.066406 -30.761719 29.835938 -29.558594 31.382812 -28.007812 C 32.929688 -26.457031 34.128906 -24.679688 34.980469 -22.671875 C 35.863281 -20.589844 36.304688 -18.410156 36.304688 -16.140625 C 36.304688 -13.871094 35.875 -11.703125 35.015625 -9.640625 C 34.183594 -7.644531 33.007812 -5.875 31.488281 -4.34375 C 29.964844 -2.808594 28.214844 -1.617188 26.234375 -0.777344 C 24.183594 0.0898438 22.027344 0.527344 19.773438 0.527344 C 17.480469 0.527344 15.304688 0.0898438 13.238281 -0.78125 C 11.234375 -1.625 9.464844 -2.820312 7.9375 -4.371094 C 6.40625 -5.917969 5.226562 -7.703125 4.394531 -9.730469 C 3.535156 -11.820312 3.105469 -14.023438 3.105469 -16.34375 C 3.105469 -18.582031 3.535156 -20.726562 4.394531 -22.777344 C 5.226562 -24.761719 6.398438 -26.523438 7.910156 -28.054688 C 9.429688 -29.59375 11.171875 -30.78125 13.144531 -31.625 C 15.1875 -32.503906 17.332031 -32.941406 19.570312 -32.941406 Z M 19.570312 -29.871094 C 17.75 -29.871094 16.011719 -29.515625 14.351562 -28.804688 C 12.75 -28.121094 11.332031 -27.152344 10.09375 -25.898438 C 8.859375 -24.648438 7.902344 -23.210938 7.226562 -21.59375 C 6.523438 -19.921875 6.175781 -18.167969 6.175781 -16.34375 C 6.175781 -14.429688 6.527344 -12.613281 7.230469 -10.898438 C 7.910156 -9.242188 8.875 -7.785156 10.121094 -6.527344 C 11.363281 -5.265625 12.800781 -4.292969 14.429688 -3.609375 C 16.113281 -2.898438 17.894531 -2.542969 19.773438 -2.542969 C 21.613281 -2.542969 23.367188 -2.898438 25.035156 -3.605469 C 26.644531 -4.285156 28.070312 -5.253906 29.308594 -6.503906 C 30.546875 -7.753906 31.503906 -9.191406 32.183594 -10.820312 C 32.882812 -12.503906 33.234375 -14.28125 33.234375 -16.140625 C 33.234375 -17.996094 32.875 -19.773438 32.15625 -21.472656 C 31.460938 -23.117188 30.476562 -24.570312 29.210938 -25.84375 C 27.945312 -27.113281 26.496094 -28.09375 24.863281 -28.792969 C 23.171875 -29.511719 21.410156 -29.871094 19.570312 -29.871094 Z M 19.570312 -29.871094 "/></g></g><g style="fill:#43a046;fill-opacity:1;"><g transform="translate(234.56582, 185.999988)"><path style="stroke:none" d="M 7.992188 -32.617188 L 7.992188 0 L 6.457031 0 L 6.457031 -1.535156 L 8.40625 -1.535156 L 8.40625 0 L 6.871094 0 L 6.871094 -32.617188 L 8.40625 -32.617188 L 8.40625 -31.082031 L 6.457031 -31.082031 L 6.457031 -32.617188 Z M 4.921875 -34.152344 L 9.941406 -34.152344 L 9.941406 1.535156 L 4.921875 1.535156 Z M 7.652344 -43.3125 C 7.652344 -43.3125 7.648438 -43.320312 7.632812 -43.335938 C 7.613281 -43.355469 7.601562 -43.367188 7.597656 -43.367188 C 7.554688 -43.367188 7.519531 -43.347656 7.488281 -43.316406 L 7.476562 -43.3125 L 7.488281 -43.304688 C 7.519531 -43.273438 7.554688 -43.257812 7.597656 -43.257812 C 7.601562 -43.257812 7.613281 -43.265625 7.632812 -43.285156 C 7.648438 -43.300781 7.652344 -43.308594 7.652344 -43.3125 Z M 4.585938 -43.3125 C 4.585938 -44.136719 4.867188 -44.839844 5.429688 -45.421875 C 6.015625 -46.023438 6.738281 -46.324219 7.597656 -46.324219 C 8.441406 -46.324219 9.152344 -46.015625 9.726562 -45.402344 C 10.273438 -44.820312 10.546875 -44.125 10.546875 -43.3125 C 10.546875 -42.5 10.273438 -41.800781 9.726562 -41.21875 C 9.152344 -40.605469 8.441406 -40.296875 7.597656 -40.296875 C 6.738281 -40.296875 6.015625 -40.597656 5.429688 -41.199219 C 4.867188 -41.78125 4.585938 -42.484375 4.585938 -43.3125 Z M 4.585938 -43.3125 "/></g></g><g style="fill:#43a046;fill-opacity:1;"><g transform="translate(259.245735, 185.999988)"><path style="stroke:none" d="M 20.390625 15.960938 C 20.90625 16.132812 21.753906 16.21875 22.933594 16.21875 C 25.433594 16.21875 27.683594 15.59375 29.683594 14.335938 C 31.667969 13.089844 33.117188 11.40625 34.03125 9.28125 C 34.445312 8.304688 34.742188 7.183594 34.914062 5.917969 C 35.09375 4.601562 35.1875 2.828125 35.1875 0.605469 L 35.1875 -15.132812 C 35.1875 -16.28125 35.097656 -17.429688 34.925781 -18.578125 C 34.757812 -19.671875 34.539062 -20.621094 34.261719 -21.421875 C 33.746094 -22.9375 33.011719 -24.332031 32.050781 -25.605469 C 31.113281 -26.855469 30 -27.933594 28.71875 -28.84375 C 27.433594 -29.757812 26.039062 -30.457031 24.535156 -30.941406 C 22.992188 -31.441406 21.40625 -31.6875 19.773438 -31.6875 C 17.632812 -31.6875 15.59375 -31.285156 13.65625 -30.472656 C 11.785156 -29.691406 10.132812 -28.589844 8.695312 -27.164062 C 7.265625 -25.742188 6.15625 -24.109375 5.371094 -22.265625 C 4.5625 -20.363281 4.15625 -18.363281 4.15625 -16.273438 C 4.15625 -14.148438 4.558594 -12.125 5.363281 -10.195312 C 6.140625 -8.335938 7.242188 -6.6875 8.664062 -5.261719 C 10.085938 -3.828125 11.722656 -2.722656 13.574219 -1.941406 C 15.496094 -1.132812 17.515625 -0.726562 19.636719 -0.726562 C 21.617188 -0.726562 23.550781 -1.117188 25.441406 -1.898438 C 27.324219 -2.671875 28.949219 -3.746094 30.320312 -5.121094 C 30.984375 -5.78125 31.503906 -6.382812 31.882812 -6.921875 C 32.246094 -7.449219 32.761719 -8.320312 33.417969 -9.539062 L 36.304688 -8.808594 L 36.304688 0.605469 C 36.304688 2.074219 36.269531 3.28125 36.203125 4.226562 C 36.109375 5.535156 35.933594 6.703125 35.679688 7.734375 C 35.050781 10.273438 33.8125 12.378906 31.964844 14.050781 C 29.53125 16.332031 26.5 17.472656 22.867188 17.472656 C 22.378906 17.472656 21.839844 17.441406 21.246094 17.382812 C 20.621094 17.316406 20.144531 17.238281 19.820312 17.144531 L 20.242188 15.667969 L 21.75 15.960938 L 21.414062 17.707031 L 19.90625 17.417969 Z M 18.144531 18.449219 L 19.054688 13.734375 L 20.664062 14.195312 C 20.816406 14.238281 21.113281 14.28125 21.5625 14.328125 C 22.050781 14.378906 22.484375 14.40625 22.867188 14.40625 C 25.691406 14.40625 28.035156 13.527344 29.90625 11.773438 C 31.289062 10.523438 32.21875 8.929688 32.699219 6.996094 C 32.914062 6.136719 33.058594 5.140625 33.140625 4.007812 C 33.203125 3.136719 33.234375 2 33.234375 0.605469 L 33.234375 -8.808594 L 34.769531 -8.808594 L 36.121094 -8.082031 C 35.402344 -6.757812 34.828125 -5.785156 34.394531 -5.164062 C 33.914062 -4.476562 33.28125 -3.738281 32.492188 -2.949219 C 30.832031 -1.289062 28.871094 0.0078125 26.613281 0.9375 C 24.347656 1.875 22.019531 2.339844 19.636719 2.339844 C 17.101562 2.339844 14.683594 1.855469 12.382812 0.886719 C 10.15625 -0.0546875 8.191406 -1.378906 6.488281 -3.097656 C 4.78125 -4.808594 3.464844 -6.78125 2.53125 -9.015625 C 1.570312 -11.320312 1.089844 -13.738281 1.089844 -16.273438 C 1.089844 -18.78125 1.574219 -21.179688 2.546875 -23.46875 C 3.488281 -25.679688 4.816406 -27.640625 6.535156 -29.34375 C 8.257812 -31.050781 10.234375 -32.371094 12.472656 -33.304688 C 14.789062 -34.273438 17.222656 -34.757812 19.773438 -34.757812 C 21.726562 -34.757812 23.628906 -34.460938 25.476562 -33.863281 C 27.28125 -33.28125 28.953125 -32.441406 30.496094 -31.347656 C 32.039062 -30.25 33.371094 -28.953125 34.503906 -27.449219 C 35.660156 -25.914062 36.542969 -24.238281 37.160156 -22.425781 C 37.5 -21.449219 37.765625 -20.316406 37.960938 -19.035156 C 38.15625 -17.734375 38.253906 -16.433594 38.253906 -15.132812 L 38.253906 0.605469 C 38.253906 2.96875 38.152344 4.878906 37.953125 6.335938 C 37.742188 7.871094 37.375 9.253906 36.851562 10.492188 C 35.683594 13.203125 33.839844 15.351562 31.316406 16.9375 C 28.816406 18.503906 26.023438 19.289062 22.933594 19.289062 C 21.421875 19.289062 20.25 19.152344 19.421875 18.875 Z M 19.703125 0.59375 C 17.386719 0.59375 15.191406 0.152344 13.117188 -0.734375 C 11.121094 -1.585938 9.363281 -2.792969 7.84375 -4.351562 C 6.339844 -5.898438 5.179688 -7.679688 4.363281 -9.699219 C 3.523438 -11.765625 3.105469 -13.933594 3.105469 -16.207031 C 3.105469 -18.511719 3.527344 -20.695312 4.371094 -22.765625 C 5.191406 -24.777344 6.359375 -26.554688 7.867188 -28.085938 C 9.382812 -29.625 11.132812 -30.8125 13.125 -31.648438 C 15.175781 -32.511719 17.347656 -32.941406 19.636719 -32.941406 C 21.890625 -32.941406 24.050781 -32.503906 26.117188 -31.628906 C 28.109375 -30.785156 29.875 -29.597656 31.414062 -28.0625 C 32.953125 -26.53125 34.144531 -24.769531 34.988281 -22.789062 C 35.867188 -20.730469 36.304688 -18.582031 36.304688 -16.34375 C 36.304688 -14.042969 35.871094 -11.84375 35.007812 -9.746094 C 34.171875 -7.71875 32.988281 -5.925781 31.460938 -4.367188 C 29.933594 -2.804688 28.171875 -1.59375 26.183594 -0.738281 C 24.125 0.148438 21.964844 0.59375 19.703125 0.59375 Z M 19.703125 -2.476562 C 21.542969 -2.476562 23.296875 -2.835938 24.96875 -3.554688 C 26.589844 -4.253906 28.019531 -5.238281 29.269531 -6.511719 C 30.519531 -7.789062 31.484375 -9.257812 32.171875 -10.917969 C 32.878906 -12.640625 33.234375 -14.449219 33.234375 -16.34375 C 33.234375 -18.164062 32.878906 -19.914062 32.167969 -21.585938 C 31.476562 -23.203125 30.503906 -24.636719 29.246094 -25.890625 C 27.988281 -27.144531 26.546875 -28.113281 24.921875 -28.804688 C 23.238281 -29.515625 21.476562 -29.871094 19.636719 -29.871094 C 17.761719 -29.871094 15.984375 -29.519531 14.3125 -28.820312 C 12.699219 -28.140625 11.28125 -27.179688 10.054688 -25.933594 C 8.828125 -24.6875 7.882812 -23.246094 7.214844 -21.605469 C 6.519531 -19.910156 6.175781 -18.109375 6.175781 -16.207031 C 6.175781 -14.332031 6.519531 -12.546875 7.207031 -10.851562 C 7.875 -9.203125 8.820312 -7.75 10.042969 -6.492188 C 11.277344 -5.226562 12.703125 -4.246094 14.320312 -3.554688 C 16.011719 -2.835938 17.804688 -2.476562 19.703125 -2.476562 Z M 19.703125 -2.476562 "/></g></g><g style="fill:#43a046;fill-opacity:1;"><g transform="translate(311.360523, 185.999988)"><path style="stroke:none" d="M 7.992188 -32.617188 L 7.992188 0 L 6.457031 0 L 6.457031 -1.535156 L 8.40625 -1.535156 L 8.40625 0 L 6.871094 0 L 6.871094 -32.617188 L 8.40625 -32.617188 L 8.40625 -31.082031 L 6.457031 -31.082031 L 6.457031 -32.617188 Z M 4.921875 -34.152344 L 9.941406 -34.152344 L 9.941406 1.535156 L 4.921875 1.535156 Z M 7.652344 -43.3125 C 7.652344 -43.3125 7.648438 -43.320312 7.632812 -43.335938 C 7.613281 -43.355469 7.601562 -43.367188 7.597656 -43.367188 C 7.554688 -43.367188 7.519531 -43.347656 7.488281 -43.316406 L 7.476562 -43.3125 L 7.488281 -43.304688 C 7.519531 -43.273438 7.554688 -43.257812 7.597656 -43.257812 C 7.601562 -43.257812 7.613281 -43.265625 7.632812 -43.285156 C 7.648438 -43.300781 7.652344 -43.308594 7.652344 -43.3125 Z M 4.585938 -43.3125 C 4.585938 -44.136719 4.867188 -44.839844 5.429688 -45.421875 C 6.015625 -46.023438 6.738281 -46.324219 7.597656 -46.324219 C 8.441406 -46.324219 9.152344 -46.015625 9.726562 -45.402344 C 10.273438 -44.820312 10.546875 -44.125 10.546875 -43.3125 C 10.546875 -42.5 10.273438 -41.800781 9.726562 -41.21875 C 9.152344 -40.605469 8.441406 -40.296875 7.597656 -40.296875 C 6.738281 -40.296875 6.015625 -40.597656 5.429688 -41.199219 C 4.867188 -41.78125 4.585938 -42.484375 4.585938 -43.3125 Z M 4.585938 -43.3125 "/></g></g></g></svg>