<svg width="20" height="20" viewBox="0 0 20 20" fill="none" xmlns="http://www.w3.org/2000/svg">
<path d="M12.5003 11.6654V9.16536H15.0003V7.4987L18.3337 10.4154L15.0003 13.332V11.6654H12.5003ZM11.667 6.41536V7.4987H1.66699V6.41536L6.66699 3.33203L11.667 6.41536ZM5.83366 8.33203H7.50033V12.4987H5.83366V8.33203ZM2.50033 8.33203H4.16699V12.4987H2.50033V8.33203ZM10.8337 8.33203V10.4154L9.16699 11.9154V8.33203H10.8337ZM7.58366 13.332L7.08366 13.7487L8.50033 14.9987H1.66699V13.332H7.58366ZM14.167 12.4987V14.9987H11.667V16.6654L8.33366 13.7487L11.667 10.832V12.4987H14.167Z" fill="#5B5757"/>
</svg>
