<svg xmlns="http://www.w3.org/2000/svg" width="20" height="20" viewBox="0 0 48 48"><g><path fill="#4285F4" d="M24 9.5c3.54 0 6.7 1.22 9.19 3.23l6.86-6.86C36.13 2.7 30.45 0 24 0 14.82 0 6.71 5.82 2.69 14.09l8.01 6.22C12.36 13.99 17.68 9.5 24 9.5z"/><path fill="#34A853" d="M46.1 24.55c0-1.64-.15-3.22-.42-4.74H24v9.01h12.42c-.54 2.9-2.18 5.36-4.65 7.01l7.19 5.6C43.98 37.13 46.1 31.36 46.1 24.55z"/><path fill="#FBBC05" d="M10.7 28.31a14.5 14.5 0 0 1 0-8.62l-8.01-6.22A23.94 23.94 0 0 0 0 24c0 3.77.9 7.34 2.69 10.91l8.01-6.22z"/><path fill="#EA4335" d="M24 48c6.45 0 12.13-2.13 16.54-5.81l-7.19-5.6c-2.01 1.35-4.59 2.16-7.35 2.16-6.32 0-11.64-4.49-13.3-10.49l-8.01 6.22C6.71 42.18 14.82 48 24 48z"/><path fill="none" d="M0 0h48v48H0z"/></g></svg> 